<?xml version="1.0" encoding="UTF-8" standalone="no"?>
<!DOCTYPE svg PUBLIC "-//W3C//DTD SVG 1.1//EN"
 "http://www.w3.org/Graphics/SVG/1.1/DTD/svg11.dtd">
<!-- Generated by graphviz version 2.50.0 (20211204.2007)
 -->
<!-- Pages: 1 -->
<svg width="388pt" height="61pt"
 viewBox="0.00 0.00 387.99 61.30" xmlns="http://www.w3.org/2000/svg" xmlns:xlink="http://www.w3.org/1999/xlink">
<g id="graph0" class="graph" transform="scale(1 1) rotate(0) translate(4 57.3)">
<polygon fill="white" stroke="transparent" points="-4,4 -4,-57.3 383.99,-57.3 383.99,4 -4,4"/>
<!-- Initial -->
<g id="node1" class="node">
<title>Initial</title>
<ellipse fill="black" stroke="black" cx="1.8" cy="-26.65" rx="1.8" ry="1.8"/>
</g>
<!-- start -->
<g id="node5" class="node">
<title>start</title>
<ellipse fill="none" stroke="black" cx="67.25" cy="-26.65" rx="26.8" ry="26.8"/>
<text text-anchor="middle" x="67.25" y="-22.95" font-family="Times New Roman,serif" font-size="14.00">start</text>
</g>
<!-- Initial&#45;&gt;start -->
<g id="edge1" class="edge">
<title>Initial&#45;&gt;start</title>
<path fill="none" stroke="black" d="M3.9,-26.65C7.48,-26.65 19.3,-26.65 31.69,-26.65"/>
<polygon fill="black" stroke="black" points="31.77,-29.62 40.27,-26.65 31.77,-23.67 31.77,-29.62"/>
</g>
<!-- s0 -->
<g id="node2" class="node">
<title>s0</title>
<ellipse fill="none" stroke="black" cx="167.74" cy="-26.65" rx="18.7" ry="18.7"/>
<text text-anchor="middle" x="167.74" y="-22.95" font-family="Times New Roman,serif" font-size="14.00">s0</text>
</g>
<!-- s1 -->
<g id="node3" class="node">
<title>s1</title>
<ellipse fill="none" stroke="black" cx="264.44" cy="-26.65" rx="18.72" ry="18.72"/>
<ellipse fill="none" stroke="black" cx="264.44" cy="-26.65" rx="22.7" ry="22.7"/>
<text text-anchor="middle" x="264.44" y="-22.95" font-family="Times New Roman,serif" font-size="14.00">s1</text>
</g>
<!-- s0&#45;&gt;s1 -->
<g id="edge3" class="edge">
<title>s0&#45;&gt;s1</title>
<path fill="none" stroke="black" d="M187,-26.65C200.03,-26.65 217.86,-26.65 233.02,-26.65"/>
<polygon fill="black" stroke="black" points="233.08,-29.62 241.58,-26.65 233.08,-23.67 233.08,-29.62"/>
<text text-anchor="middle" x="214.09" y="-30.45" font-family="Times New Roman,serif" font-size="14.00"> &amp; </text>
</g>
<!-- s2 -->
<g id="node4" class="node">
<title>s2</title>
<ellipse fill="none" stroke="black" cx="361.14" cy="-26.65" rx="18.7" ry="18.7"/>
<text text-anchor="middle" x="361.14" y="-22.95" font-family="Times New Roman,serif" font-size="14.00">s2</text>
</g>
<!-- s1&#45;&gt;s2 -->
<g id="edge4" class="edge">
<title>s1&#45;&gt;s2</title>
<path fill="none" stroke="black" d="M287.4,-26.65C301.16,-26.65 318.97,-26.65 333.53,-26.65"/>
<polygon fill="black" stroke="black" points="333.6,-29.62 342.1,-26.65 333.6,-23.67 333.6,-29.62"/>
<text text-anchor="middle" x="314.79" y="-30.45" font-family="Times New Roman,serif" font-size="14.00"> &amp; </text>
</g>
<!-- start&#45;&gt;s0 -->
<g id="edge2" class="edge">
<title>start&#45;&gt;s0</title>
<path fill="none" stroke="black" d="M94.13,-26.65C108.25,-26.65 125.7,-26.65 139.96,-26.65"/>
<polygon fill="black" stroke="black" points="140.3,-29.62 148.8,-26.65 140.3,-23.67 140.3,-29.62"/>
<text text-anchor="middle" x="121.4" y="-30.45" font-family="Times New Roman,serif" font-size="14.00"> &amp; </text>
</g>
</g>
</svg>
