<?xml version="1.0" encoding="UTF-8" standalone="no"?>
<!DOCTYPE svg PUBLIC "-//W3C//DTD SVG 1.1//EN"
 "http://www.w3.org/Graphics/SVG/1.1/DTD/svg11.dtd">
<!-- Generated by graphviz version 2.50.0 (20211204.2007)
 -->
<!-- Pages: 1 -->
<svg width="237pt" height="156pt"
 viewBox="0.00 0.00 237.24 156.50" xmlns="http://www.w3.org/2000/svg" xmlns:xlink="http://www.w3.org/1999/xlink">
<g id="graph0" class="graph" transform="scale(1 1) rotate(0) translate(4 152.5)">
<polygon fill="white" stroke="transparent" points="-4,4 -4,-152.5 233.24,-152.5 233.24,4 -4,4"/>
<!-- Initial -->
<g id="node1" class="node">
<title>Initial</title>
<ellipse fill="black" stroke="black" cx="1.8" cy="-26.65" rx="1.8" ry="1.8"/>
</g>
<!-- start -->
<g id="node3" class="node">
<title>start</title>
<ellipse fill="none" stroke="black" cx="67.25" cy="-26.65" rx="26.8" ry="26.8"/>
<text text-anchor="middle" x="67.25" y="-22.95" font-family="Times New Roman,serif" font-size="14.00">start</text>
</g>
<!-- Initial&#45;&gt;start -->
<g id="edge1" class="edge">
<title>Initial&#45;&gt;start</title>
<path fill="none" stroke="black" d="M3.9,-26.65C7.48,-26.65 19.3,-26.65 31.69,-26.65"/>
<polygon fill="black" stroke="black" points="31.77,-29.62 40.27,-26.65 31.77,-23.67 31.77,-29.62"/>
</g>
<!-- s0 -->
<g id="node2" class="node">
<title>s0</title>
<ellipse fill="none" stroke="black" cx="203.74" cy="-26.65" rx="18.72" ry="18.72"/>
<ellipse fill="none" stroke="black" cx="203.74" cy="-26.65" rx="22.7" ry="22.7"/>
<text text-anchor="middle" x="203.74" y="-22.95" font-family="Times New Roman,serif" font-size="14.00">s0</text>
</g>
<!-- s0&#45;&gt;s0 -->
<g id="edge4" class="edge">
<title>s0&#45;&gt;s0</title>
<path fill="none" stroke="black" d="M199.67,-49.33C199.33,-59.12 200.69,-67.5 203.74,-67.5 205.84,-67.5 207.14,-63.54 207.64,-57.88"/>
<polygon fill="black" stroke="black" points="210.61,-57.89 207.82,-49.33 204.66,-57.77 210.61,-57.89"/>
<text text-anchor="middle" x="203.74" y="-71.3" font-family="Times New Roman,serif" font-size="14.00"> 123… </text>
</g>
<!-- s0&#45;&gt;s0 -->
<g id="edge5" class="edge">
<title>s0&#45;&gt;s0</title>
<path fill="none" stroke="black" d="M196.7,-48.68C193.79,-66.74 196.14,-85.5 203.74,-85.5 210.1,-85.5 212.78,-72.39 211.79,-57.54"/>
<polygon fill="black" stroke="black" points="214.7,-56.79 210.78,-48.68 208.79,-57.46 214.7,-56.79"/>
<text text-anchor="middle" x="203.74" y="-89.3" font-family="Times New Roman,serif" font-size="14.00"> ABC… </text>
</g>
<!-- s0&#45;&gt;s0 -->
<g id="edge6" class="edge">
<title>s0&#45;&gt;s0</title>
<path fill="none" stroke="black" d="M194.86,-47.89C188.15,-73.46 191.11,-103.5 203.74,-103.5 214.99,-103.5 218.57,-79.67 214.48,-56.4"/>
<polygon fill="black" stroke="black" points="217.34,-55.56 212.63,-47.89 211.53,-56.83 217.34,-55.56"/>
<text text-anchor="middle" x="203.74" y="-107.3" font-family="Times New Roman,serif" font-size="14.00"> abc… </text>
</g>
<!-- start&#45;&gt;s0 -->
<g id="edge2" class="edge">
<title>start&#45;&gt;s0</title>
<path fill="none" stroke="black" d="M94.18,-26.65C116.52,-26.65 148.78,-26.65 172.33,-26.65"/>
<polygon fill="black" stroke="black" points="172.39,-29.62 180.89,-26.65 172.39,-23.67 172.39,-29.62"/>
<text text-anchor="middle" x="137.4" y="-30.45" font-family="Times New Roman,serif" font-size="14.00"> ABC… </text>
</g>
<!-- start&#45;&gt;s0 -->
<g id="edge3" class="edge">
<title>start&#45;&gt;s0</title>
<path fill="none" stroke="black" d="M91.22,-14.56C97.73,-11.72 104.94,-9.1 111.9,-7.65 134.09,-3.03 140.79,-2.65 162.9,-7.65 167.18,-8.62 171.54,-10.1 175.73,-11.83"/>
<polygon fill="black" stroke="black" points="174.54,-14.55 183.51,-15.36 177,-9.14 174.54,-14.55"/>
<text text-anchor="middle" x="137.4" y="-11.45" font-family="Times New Roman,serif" font-size="14.00"> abc… </text>
</g>
</g>
</svg>
