<?xml version="1.0" encoding="UTF-8" standalone="no"?>
<!DOCTYPE svg PUBLIC "-//W3C//DTD SVG 1.1//EN"
 "http://www.w3.org/Graphics/SVG/1.1/DTD/svg11.dtd">
<!-- Generated by graphviz version 2.50.0 (20211204.2007)
 -->
<!-- Pages: 1 -->
<svg width="220pt" height="90pt"
 viewBox="0.00 0.00 219.59 90.50" xmlns="http://www.w3.org/2000/svg" xmlns:xlink="http://www.w3.org/1999/xlink">
<g id="graph0" class="graph" transform="scale(1 1) rotate(0) translate(4 86.5)">
<polygon fill="white" stroke="transparent" points="-4,4 -4,-86.5 215.59,-86.5 215.59,4 -4,4"/>
<!-- Initial -->
<g id="node1" class="node">
<title>Initial</title>
<ellipse fill="black" stroke="black" cx="1.8" cy="-26.65" rx="1.8" ry="1.8"/>
</g>
<!-- start -->
<g id="node3" class="node">
<title>start</title>
<ellipse fill="none" stroke="black" cx="67.25" cy="-26.65" rx="26.8" ry="26.8"/>
<text text-anchor="middle" x="67.25" y="-22.95" font-family="Times New Roman,serif" font-size="14.00">start</text>
</g>
<!-- Initial&#45;&gt;start -->
<g id="edge1" class="edge">
<title>Initial&#45;&gt;start</title>
<path fill="none" stroke="black" d="M3.9,-26.65C7.48,-26.65 19.3,-26.65 31.69,-26.65"/>
<polygon fill="black" stroke="black" points="31.77,-29.62 40.27,-26.65 31.77,-23.67 31.77,-29.62"/>
</g>
<!-- s0 -->
<g id="node2" class="node">
<title>s0</title>
<ellipse fill="none" stroke="black" cx="188.74" cy="-26.65" rx="18.72" ry="18.72"/>
<ellipse fill="none" stroke="black" cx="188.74" cy="-26.65" rx="22.7" ry="22.7"/>
<text text-anchor="middle" x="188.74" y="-22.95" font-family="Times New Roman,serif" font-size="14.00">s0</text>
</g>
<!-- s0&#45;&gt;s0 -->
<g id="edge3" class="edge">
<title>s0&#45;&gt;s0</title>
<path fill="none" stroke="black" d="M178.25,-47.25C176.64,-57.9 180.13,-67.5 188.74,-67.5 194.93,-67.5 198.48,-62.54 199.39,-55.79"/>
<polygon fill="black" stroke="black" points="202.36,-55.69 199.24,-47.25 196.41,-55.8 202.36,-55.69"/>
<text text-anchor="middle" x="188.74" y="-71.3" font-family="Times New Roman,serif" font-size="14.00"> 0…9 </text>
</g>
<!-- start&#45;&gt;s0 -->
<g id="edge2" class="edge">
<title>start&#45;&gt;s0</title>
<path fill="none" stroke="black" d="M94.18,-26.65C112.75,-26.65 137.82,-26.65 157.34,-26.65"/>
<polygon fill="black" stroke="black" points="157.37,-29.62 165.87,-26.65 157.37,-23.67 157.37,-29.62"/>
<text text-anchor="middle" x="129.9" y="-30.45" font-family="Times New Roman,serif" font-size="14.00"> 0…9 </text>
</g>
</g>
</svg>
