<?xml version="1.0" encoding="UTF-8" standalone="no"?>
<!DOCTYPE svg PUBLIC "-//W3C//DTD SVG 1.1//EN"
 "http://www.w3.org/Graphics/SVG/1.1/DTD/svg11.dtd">
<!-- Generated by graphviz version 2.50.0 (20211204.2007)
 -->
<!-- Pages: 1 -->
<svg width="576pt" height="113pt"
 viewBox="0.00 0.00 576.00 113.14" xmlns="http://www.w3.org/2000/svg" xmlns:xlink="http://www.w3.org/1999/xlink">
<g id="graph0" class="graph" transform="scale(0.9 0.9) rotate(0) translate(4 121.53)">
<polygon fill="white" stroke="transparent" points="-4,4 -4,-121.53 635.08,-121.53 635.08,4 -4,4"/>
<!-- Initial -->
<g id="node1" class="node">
<title>Initial</title>
<ellipse fill="black" stroke="black" cx="1.8" cy="-46.53" rx="1.8" ry="1.8"/>
</g>
<!-- start -->
<g id="node8" class="node">
<title>start</title>
<ellipse fill="none" stroke="black" cx="67.25" cy="-46.53" rx="26.8" ry="26.8"/>
<text text-anchor="middle" x="67.25" y="-42.83" font-family="Times New Roman,serif" font-size="14.00">start</text>
</g>
<!-- Initial&#45;&gt;start -->
<g id="edge1" class="edge">
<title>Initial&#45;&gt;start</title>
<path fill="none" stroke="black" d="M3.9,-46.53C7.48,-46.53 19.3,-46.53 31.69,-46.53"/>
<polygon fill="black" stroke="black" points="31.77,-49.5 40.27,-46.53 31.77,-43.55 31.77,-49.5"/>
</g>
<!-- s0 -->
<g id="node2" class="node">
<title>s0</title>
<ellipse fill="none" stroke="black" cx="166.74" cy="-46.53" rx="18.7" ry="18.7"/>
<text text-anchor="middle" x="166.74" y="-42.83" font-family="Times New Roman,serif" font-size="14.00">s0</text>
</g>
<!-- s1 -->
<g id="node3" class="node">
<title>s1</title>
<ellipse fill="none" stroke="black" cx="255.44" cy="-46.53" rx="18.7" ry="18.7"/>
<text text-anchor="middle" x="255.44" y="-42.83" font-family="Times New Roman,serif" font-size="14.00">s1</text>
</g>
<!-- s0&#45;&gt;s1 -->
<g id="edge3" class="edge">
<title>s0&#45;&gt;s1</title>
<path fill="none" stroke="black" d="M185.71,-46.53C197.91,-46.53 214.26,-46.53 227.96,-46.53"/>
<polygon fill="black" stroke="black" points="228,-49.5 236.5,-46.53 228,-43.55 228,-49.5"/>
<text text-anchor="middle" x="211.09" y="-50.33" font-family="Times New Roman,serif" font-size="14.00"> h </text>
</g>
<!-- s2 -->
<g id="node4" class="node">
<title>s2</title>
<ellipse fill="none" stroke="black" cx="340.14" cy="-46.53" rx="18.7" ry="18.7"/>
<text text-anchor="middle" x="340.14" y="-42.83" font-family="Times New Roman,serif" font-size="14.00">s2</text>
</g>
<!-- s1&#45;&gt;s2 -->
<g id="edge4" class="edge">
<title>s1&#45;&gt;s2</title>
<path fill="none" stroke="black" d="M274.38,-46.53C285.55,-46.53 300.1,-46.53 312.58,-46.53"/>
<polygon fill="black" stroke="black" points="312.73,-49.5 321.23,-46.53 312.73,-43.55 312.73,-49.5"/>
<text text-anchor="middle" x="297.79" y="-50.33" font-family="Times New Roman,serif" font-size="14.00"> i </text>
</g>
<!-- s3 -->
<g id="node5" class="node">
<title>s3</title>
<ellipse fill="none" stroke="black" cx="424.83" cy="-46.53" rx="18.7" ry="18.7"/>
<text text-anchor="middle" x="424.83" y="-42.83" font-family="Times New Roman,serif" font-size="14.00">s3</text>
</g>
<!-- s2&#45;&gt;s3 -->
<g id="edge5" class="edge">
<title>s2&#45;&gt;s3</title>
<path fill="none" stroke="black" d="M359.08,-46.53C370.24,-46.53 384.8,-46.53 397.28,-46.53"/>
<polygon fill="black" stroke="black" points="397.42,-49.5 405.92,-46.53 397.42,-43.55 397.42,-49.5"/>
<text text-anchor="middle" x="382.49" y="-50.33" font-family="Times New Roman,serif" font-size="14.00"> l </text>
</g>
<!-- s4 -->
<g id="node6" class="node">
<title>s4</title>
<ellipse fill="none" stroke="black" cx="516.53" cy="-46.53" rx="18.72" ry="18.72"/>
<ellipse fill="none" stroke="black" cx="516.53" cy="-46.53" rx="22.7" ry="22.7"/>
<text text-anchor="middle" x="516.53" y="-42.83" font-family="Times New Roman,serif" font-size="14.00">s4</text>
</g>
<!-- s3&#45;&gt;s4 -->
<g id="edge6" class="edge">
<title>s3&#45;&gt;s4</title>
<path fill="none" stroke="black" d="M443.99,-46.53C455.74,-46.53 471.35,-46.53 484.99,-46.53"/>
<polygon fill="black" stroke="black" points="485.1,-49.5 493.6,-46.53 485.1,-43.55 485.1,-49.5"/>
<text text-anchor="middle" x="468.68" y="-50.33" font-family="Times New Roman,serif" font-size="14.00"> e </text>
</g>
<!-- s5 -->
<g id="node7" class="node">
<title>s5</title>
<ellipse fill="none" stroke="black" cx="612.23" cy="-46.53" rx="18.7" ry="18.7"/>
<text text-anchor="middle" x="612.23" y="-42.83" font-family="Times New Roman,serif" font-size="14.00">s5</text>
</g>
<!-- s4&#45;&gt;s5 -->
<g id="edge7" class="edge">
<title>s4&#45;&gt;s5</title>
<path fill="none" stroke="black" d="M527.07,-66.92C537.59,-86.33 555.64,-111.11 575.38,-100.53 586.87,-94.36 595.3,-82.72 601.09,-71.81"/>
<polygon fill="black" stroke="black" points="603.8,-73.04 604.85,-64.09 598.45,-70.44 603.8,-73.04"/>
<text text-anchor="middle" x="566.38" y="-106.33" font-family="Times New Roman,serif" font-size="14.00"> w </text>
</g>
<!-- s4&#45;&gt;s5 -->
<g id="edge8" class="edge">
<title>s4&#45;&gt;s5</title>
<path fill="none" stroke="black" d="M537.2,-56.83C548.32,-61.43 562.54,-65.26 575.38,-62.53 579.42,-61.67 583.55,-60.32 587.51,-58.76"/>
<polygon fill="black" stroke="black" points="588.7,-61.49 595.3,-55.36 586.32,-56.03 588.7,-61.49"/>
<text text-anchor="middle" x="566.38" y="-66.33" font-family="Times New Roman,serif" font-size="14.00"> h </text>
</g>
<!-- s4&#45;&gt;s5 -->
<g id="edge9" class="edge">
<title>s4&#45;&gt;s5</title>
<path fill="none" stroke="black" d="M539.5,-44.42C550.31,-43.63 563.52,-43.03 575.38,-43.53 578.4,-43.65 581.57,-43.84 584.71,-44.06"/>
<polygon fill="black" stroke="black" points="584.67,-47.04 593.38,-44.74 585.13,-41.11 584.67,-47.04"/>
<text text-anchor="middle" x="566.38" y="-47.33" font-family="Times New Roman,serif" font-size="14.00"> i </text>
</g>
<!-- s4&#45;&gt;s5 -->
<g id="edge10" class="edge">
<title>s4&#45;&gt;s5</title>
<path fill="none" stroke="black" d="M535.21,-32.9C546.51,-25.85 561.58,-19.48 575.38,-23.53 580.38,-24.99 585.34,-27.4 589.91,-30.11"/>
<polygon fill="black" stroke="black" points="588.42,-32.69 597.16,-34.85 591.68,-27.71 588.42,-32.69"/>
<text text-anchor="middle" x="566.38" y="-27.33" font-family="Times New Roman,serif" font-size="14.00"> l </text>
</g>
<!-- s4&#45;&gt;s5 -->
<g id="edge11" class="edge">
<title>s4&#45;&gt;s5</title>
<path fill="none" stroke="black" d="M529.41,-27.17C536.3,-17.86 545.88,-7.62 557.38,-2.53 564.69,0.72 568.15,0.91 575.38,-2.53 584.51,-6.87 592.08,-14.79 597.87,-22.74"/>
<polygon fill="black" stroke="black" points="595.49,-24.52 602.69,-29.93 600.43,-21.21 595.49,-24.52"/>
<text text-anchor="middle" x="566.38" y="-6.33" font-family="Times New Roman,serif" font-size="14.00"> e </text>
</g>
<!-- start&#45;&gt;s0 -->
<g id="edge2" class="edge">
<title>start&#45;&gt;s0</title>
<path fill="none" stroke="black" d="M94.12,-46.53C108,-46.53 125.09,-46.53 139.09,-46.53"/>
<polygon fill="black" stroke="black" points="139.28,-49.5 147.78,-46.53 139.28,-43.55 139.28,-49.5"/>
<text text-anchor="middle" x="120.9" y="-50.33" font-family="Times New Roman,serif" font-size="14.00"> w </text>
</g>
</g>
</svg>
